<svg xmlns="http://www.w3.org/2000/svg" viewBox="0 0 512 512" width="512" height="512">
  <rect width="512" height="512" rx="100" fill="#0d0a0a"/>
  <circle cx="256" cy="256" r="210" fill="none" stroke="#d4af37" stroke-width="18"/>
  <circle cx="256" cy="256" r="180" fill="none" stroke="#aa7c11" stroke-width="4" stroke-dasharray="8 12"/>
  <path d="M140 170 C140 150, 200 145, 256 145 C312 145, 372 150, 372 170 C372 185, 310 190, 280 190 L280 230 L232 230 L232 190 C202 190, 140 185, 140 170 Z" fill="#d4af37"/>
  <path d="M155 200 L256 390 L357 200 L315 200 L256 325 L197 200 Z" fill="#d4af37"/>
  <circle cx="256" cy="245" r="14" fill="#3a2404" stroke="#fff3b0" stroke-width="4"/>
  <path d="M256 245 L225 215 L240 210 L256 230 L272 210 L287 215 Z" fill="#f3e5ab"/>
  <text x="256" y="440" font-family="sans-serif" font-weight="900" font-size="34" fill="#d4af37" text-anchor="middle" letter-spacing="8">TIMEVERA</text>
</svg>